<mxfile host="app.diagrams.net" agent="Mozilla/5.0 (Windows NT 10.0; Win64; x64) AppleWebKit/537.36 (KHTML, like Gecko) Chrome/134.0.0.0 Safari/537.36 OPR/119.0.0.0" version="26.0.5">
  <diagram name="Page-1" id="Iox6l-XRtJaFCBq0I-ve">
    <mxGraphModel dx="781" dy="407" grid="1" gridSize="10" guides="1" tooltips="1" connect="1" arrows="1" fold="1" page="1" pageScale="1" pageWidth="850" pageHeight="1100" background="#FFFFFF" math="0" shadow="0">
      <root>
        <mxCell id="0" />
        <mxCell id="1" parent="0" />
        <mxCell id="Wn4BFjO-d20OrilAm-jY-1" value="Diagnostico financiero" style="ellipse;whiteSpace=wrap;html=1;strokeColor=light-dark(#000000,#000000);" vertex="1" parent="1">
          <mxGeometry x="340" y="90" width="120" height="80" as="geometry" />
        </mxCell>
        <mxCell id="Wn4BFjO-d20OrilAm-jY-5" value="&lt;span style=&quot;font-size: 12px; text-wrap-mode: wrap;&quot;&gt;Norma internacional de contabilidad&amp;nbsp;&lt;/span&gt;&lt;div&gt;&lt;span style=&quot;font-size: 12px; text-wrap-mode: wrap;&quot;&gt;(NIC 1)&amp;nbsp;&lt;/span&gt;&lt;/div&gt;" style="edgeStyle=orthogonalEdgeStyle;rounded=0;orthogonalLoop=1;jettySize=auto;html=1;strokeColor=#000000;labelBackgroundColor=default;fontColor=default;" edge="1" parent="1" source="Wn4BFjO-d20OrilAm-jY-2" target="Wn4BFjO-d20OrilAm-jY-4">
          <mxGeometry x="-0.2134" relative="1" as="geometry">
            <mxPoint as="offset" />
          </mxGeometry>
        </mxCell>
        <mxCell id="Wn4BFjO-d20OrilAm-jY-2" value="Estados financieros" style="rounded=1;whiteSpace=wrap;html=1;strokeColor=light-dark(#000000,#000000);" vertex="1" parent="1">
          <mxGeometry x="510" y="90" width="120" height="60" as="geometry" />
        </mxCell>
        <mxCell id="Wn4BFjO-d20OrilAm-jY-3" value="Norma internacional de contabilidad (NIC 1) l" style="rounded=1;whiteSpace=wrap;html=1;strokeColor=light-dark(#000000,#000000);" vertex="1" parent="1">
          <mxGeometry x="150" y="290" width="120" height="60" as="geometry" />
        </mxCell>
        <mxCell id="Wn4BFjO-d20OrilAm-jY-4" value="son una representación financiera estructurada de la posición financiera y de las transacciones llevadas a cabo por una empresa." style="rounded=1;whiteSpace=wrap;html=1;align=center;" vertex="1" parent="1">
          <mxGeometry x="425" y="380" width="295" height="60" as="geometry" />
        </mxCell>
      </root>
    </mxGraphModel>
  </diagram>
</mxfile>
